<svg xmlns="http://www.w3.org/2000/svg" width="56" height="57.88" viewBox="0 0 56 57.88">
  <metadata><?xpacket begin="﻿" id="W5M0MpCehiHzreSzNTczkc9d"?>
<x:xmpmeta xmlns:x="adobe:ns:meta/" x:xmptk="Adobe XMP Core 5.6-c138 79.159824, 2016/09/14-01:09:01        ">
   <rdf:RDF xmlns:rdf="http://www.w3.org/1999/02/22-rdf-syntax-ns#">
      <rdf:Description rdf:about=""/>
   </rdf:RDF>
</x:xmpmeta>
                                                                                                    
                                                                                                    
                                                                                                    
                                                                                                    
                                                                                                    
                                                                                                    
                                                                                                    
                                                                                                    
                                                                                                    
                                                                                                    
                                                                                                    
                                                                                                    
                                                                                                    
                                                                                                    
                                                                                                    
                                                                                                    
                                                                                                    
                                                                                                    
                                                                                                    
                                                                                                    
                           
<?xpacket end="w"?></metadata>
<defs>
    <style>
      .cls-1 {
        fill: #fff;
        fill-rule: evenodd;
      }
    </style>
  </defs>
  <path id="_" data-name="" class="cls-1" d="M627,7273.22a2,2,0,0,0-.58-1.34L599.4,7244.86a1.823,1.823,0,0,0-2.667,0l-2.9,2.9a1.826,1.826,0,0,0,0,2.67l22.786,22.79L593.834,7296a1.826,1.826,0,0,0,0,2.67l2.9,2.9a1.823,1.823,0,0,0,2.667,0l27.019-27.02A2,2,0,0,0,627,7273.22Zm22.265,0a2,2,0,0,0-.58-1.34l-27.019-27.02a1.823,1.823,0,0,0-2.667,0l-2.9,2.9a1.826,1.826,0,0,0,0,2.67l22.786,22.79L616.1,7296a1.826,1.826,0,0,0,0,2.67l2.9,2.9a1.823,1.823,0,0,0,2.667,0l27.019-27.02A2,2,0,0,0,649.264,7273.22Z" transform="translate(-593.25 -7244.28)"/>
</svg>
