<svg xmlns="http://www.w3.org/2000/svg" viewBox="0 0 614.1 139.96"><defs><style>.cls-1{fill:#ef4136;}.cls-1,.cls-2,.cls-3,.cls-4{fill-rule:evenodd;}.cls-2{fill:#b7222f;}.cls-3{fill:#33479d;}.cls-4{fill:#f89522;}.cls-5{fill:#fff;}</style></defs><title>logo</title><g id="Layer_2" data-name="Layer 2"><g id="Layer_1-2" data-name="Layer 1"><polygon class="cls-1" points="100.15 69.75 40.88 69.75 100.15 10.48 100.15 69.75"/><polygon class="cls-2" points="40.88 69.75 100.15 69.75 100.15 129.01 40.88 69.75"/><polygon class="cls-3" points="0.1 80.9 59.16 139.96 0 138.78 0.1 80.9"/><polygon class="cls-4" points="0.14 59.06 0.24 0 59.61 0 0.35 59.27 0.14 59.06"/><path class="cls-5" d="M574.23,66.63V98.57H614.1v-6H580.77V72.59H609.6v-6H574.23m0-25.24v6H613v-6Zm-59.5,51.14H498.06V47.43h16.42c12.83,0,23,9.72,23,22.63S527.47,92.52,514.73,92.52Zm-.08-51.14H491.53V98.57H514.4c16.83,0,29.65-12.34,29.65-28.59S531.31,41.38,514.64,41.38Zm-65.22,0V98.57H456V41.38Zm-71.43,0V98.57h39.87v-6H384.53V72.59h28.84v-6H384.53V47.43H416.8v-6Zm-60.48,0V98.57h31.62v-6H324V41.38ZM248.28,77.9l12.83-29.41,13,29.41Zm34.88,20.67h7.11L264.7,41.38h-6.78L232.27,98.57h6.94l6.37-14.62h31.12Zm-71.19,0L187.55,66.3l22.71-24.92H202.5L171.79,74.63V41.38h-6.54V98.57h6.54V83.62L182.9,71.37,204,98.57Z"/></g></g></svg>